<?xml version="1.0" encoding="utf-8"?>
<!-- Generator: Adobe Illustrator 23.0.0, SVG Export Plug-In . SVG Version: 6.00 Build 0)  -->
<svg version="1.1" xmlns="http://www.w3.org/2000/svg" xmlns:xlink="http://www.w3.org/1999/xlink" x="0px" y="0px"
	 viewBox="0 0 432 503" style="enable-background:new 0 0 432 503;" xml:space="preserve">
<style type="text/css">
	.st0{display:none;}
	.st1{display:inline;fill:none;stroke:#00FFFF;stroke-miterlimit:10;}
	.st2{display:inline;opacity:0.1;fill:none;stroke:#00FFFF;stroke-miterlimit:10;}
	.st3{display:inline;fill:none;stroke:#FF0000;stroke-miterlimit:10;}
	.st4{stroke:#000000;stroke-miterlimit:10;}
	.st5{fill:none;stroke:#000000;stroke-width:0.5;stroke-miterlimit:10;}
</style>
<g id="Capa_1" class="st0">
	<rect x="1" y="36" class="st1" width="431" height="431"/>
	<rect x="360" y="215" class="st1" width="72" height="36"/>
	<line class="st1" x1="280.5" y1="37.5" x2="1.5" y2="427.5"/>
	<line class="st1" x1="189.5" y1="36.5" x2="432.5" y2="375.5"/>
	<line class="st1" x1="119.5" y1="34.5" x2="430.5" y2="467.5"/>
	<line class="st1" x1="310.5" y1="36.5" x2="1.5" y2="467.5"/>
	<line class="st1" x1="-83" y1="215.5" x2="496" y2="215.5"/>
	<rect x="360" y="251" class="st1" width="72" height="36"/>
	<rect x="360" y="287" class="st1" width="72" height="36"/>
	<line class="st1" x1="-70" y1="323.5" x2="509" y2="323.5"/>
	<line class="st1" x1="119.5" y1="469" x2="119.5" y2="35"/>
	<line class="st1" x1="279.5" y1="467" x2="279.5" y2="33"/>
	<polygon class="st2" points="182.13,323.5 249.49,323.5 215.32,371.15 	"/>
	<polygon class="st3" points="249.49,215.5 278.29,255.18 104.52,323.5 	"/>
	<polygon class="st3" points="152.27,216.75 328.89,325.76 119.5,262.55 	"/>
	<rect x="-0.5" y="-0.5" class="st1" width="432" height="36"/>
	<rect x="-0.5" y="466.5" class="st1" width="432" height="36"/>
</g>
<g id="Capa_3">
	<g>
		<path d="M86.75,50.71c-5.56-5.17-13.49-7.76-23.79-7.76h-31.1v99.53h3.69V99.76h27.41c10.34,0,18.29-2.57,23.82-7.72
			c5.54-5.15,8.31-12.05,8.31-20.71C95.09,62.76,92.31,55.89,86.75,50.71z M84.26,89.03c-4.76,4.69-11.86,7.04-21.29,7.04H35.55
			V46.65h27.41c9.48,0,16.59,2.34,21.33,7.01c4.74,4.67,7.11,10.61,7.11,17.81C91.4,78.48,89.02,84.34,84.26,89.03z"/>
		<rect x="114.92" y="35.85" width="3.69" height="106.64"/>
		<path d="M167.9,67.16c-8.71,0-16.02,3.48-21.94,10.42c-5.92,6.95-8.89,15.73-8.89,26.35v4.38c0,10.12,3.06,18.58,9.19,25.4
			c6.13,6.81,13.41,10.22,21.84,10.22c5.65,0,10.56-0.83,14.73-2.5s7.71-4.11,10.63-7.35l-1.98-2.87c-2.64,3.01-5.82,5.26-9.54,6.77
			c-3.71,1.5-8.33,2.26-13.84,2.26c-7.75,0-14.24-3.09-19.48-9.26c-5.24-6.17-7.86-13.73-7.86-22.66v-4.38v-0.89h55.44v-5.67
			c0-9.21-2.63-16.54-7.9-22.01S176.24,67.16,167.9,67.16z M192.51,99.35h-51l-0.21-0.41c0.64-8.02,3.39-14.71,8.27-20.06
			c4.88-5.35,10.98-8.03,18.32-8.03c7.29,0,13.22,2.5,17.77,7.49c4.56,4.99,6.84,11.25,6.84,18.76V99.35z"/>
		<polygon points="263.33,68.52 258.68,68.52 235.09,101.33 211.44,68.52 206.79,68.52 232.77,104.55 205.43,142.49 210.01,142.49 
			235.03,107.76 260.11,142.49 264.69,142.49 237.35,104.55 		"/>
		<path d="M329.84,119.52c-1.14,6.24-3.77,11.26-7.9,15.04c-4.13,3.78-10.04,5.67-17.74,5.67c-6.29,0-11.28-2.39-14.97-7.18
			s-5.54-12.19-5.54-22.22V68.52h-3.69v42.18c0,11.35,2.15,19.72,6.46,25.12s10.26,8.1,17.88,8.1c6.15,0,11.38-1.28,15.69-3.83
			s7.62-6.17,9.95-10.87l0.55,13.26h3.08V68.52h-3.76V119.52z"/>
		<path d="M399.53,110.6c-4.26-3.3-10.52-5.91-18.76-7.83c-8.93-2.05-14.9-4.44-17.91-7.18s-4.51-6.04-4.51-9.91
			c0-3.92,1.78-7.37,5.33-10.36c3.55-2.98,8.79-4.48,15.72-4.48c6.97,0,12.5,1.7,16.58,5.09c4.08,3.4,6.12,7.51,6.12,12.34h3.14
			l0.14-0.41c0.23-6.15-2.01-11.14-6.7-14.97c-4.69-3.83-11.12-5.74-19.28-5.74c-7.57,0-13.58,1.79-18.05,5.37
			c-4.47,3.58-6.7,8.01-6.7,13.3c0,5.79,1.97,10.15,5.91,13.09c3.94,2.94,10.31,5.34,19.11,7.21c8.34,1.82,14.18,4.34,17.53,7.55
			s5.02,6.78,5.02,10.7c0,4.19-2.01,7.88-6.02,11.07c-4.01,3.19-9.43,4.79-16.27,4.79c-6.33,0-11.83-1.3-16.47-3.9
			s-7.16-6.81-7.52-12.65h-3.01l-0.14,0.41c-0.32,5.51,1.97,10.2,6.87,14.05c4.9,3.85,11.66,5.78,20.27,5.78
			c7.84,0,14.13-1.8,18.87-5.4c4.74-3.6,7.11-8.29,7.11-14.08C405.92,118.52,403.79,113.9,399.53,110.6z"/>
	</g>
</g>
<g id="Capa_2">
	<circle class="st4" cx="319" cy="217" r="4.5"/>
	<polygon class="st5" points="328.5,325.5 240.5,271.5 119.5,216.75 199.97,286.84 	"/>
	<polygon class="st5" points="206.14,250 318.7,216.75 240.58,271.26 104.5,323.5 	"/>
	<circle class="st4" cx="329" cy="326" r="4.5"/>
	<circle class="st4" cx="201" cy="287" r="4.5"/>
	<circle class="st4" cx="241" cy="271" r="4.5"/>
	<circle class="st4" cx="103" cy="324" r="4.5"/>
	<circle class="st4" cx="179" cy="269" r="4.5"/>
	<circle class="st4" cx="119" cy="216" r="4.5"/>
	<circle class="st4" cx="202.13" cy="253.13" r="4.5"/>
</g>
</svg>
